<svg width="41" height="41" viewBox="0 0 41 41" fill="none" xmlns="http://www.w3.org/2000/svg">
<path d="M8.54167 8.54163H32.4583C33.8176 8.54163 35.1211 9.08158 36.0823 10.0427C37.0434 11.0038 37.5833 12.3074 37.5833 13.6666V27.3333C37.5833 28.6925 37.0434 29.9961 36.0823 30.9572C35.1211 31.9183 33.8176 32.4583 32.4583 32.4583H8.54167C7.18244 32.4583 5.87887 31.9183 4.91775 30.9572C3.95663 29.9961 3.41667 28.6925 3.41667 27.3333V13.6666C3.41667 12.3074 3.95663 11.0038 4.91775 10.0427C5.87887 9.08158 7.18244 8.54163 8.54167 8.54163V8.54163ZM8.54167 11.9583C8.08859 11.9583 7.65407 12.1383 7.3337 12.4587C7.01332 12.779 6.83334 13.2135 6.83334 13.6666V27.3333C6.83334 27.7864 7.01332 28.2209 7.3337 28.5413C7.65407 28.8616 8.08859 29.0416 8.54167 29.0416H32.4583C32.9114 29.0416 33.3459 28.8616 33.6663 28.5413C33.9867 28.2209 34.1667 27.7864 34.1667 27.3333V13.6666C34.1667 13.2135 33.9867 12.779 33.6663 12.4587C33.3459 12.1383 32.9114 11.9583 32.4583 11.9583H8.54167ZM8.54167 18.7916H11.9583V22.2083H8.54167V18.7916ZM8.54167 13.6666H11.9583V17.0833H8.54167V13.6666ZM8.54167 23.9166H11.9583V27.3333H8.54167V23.9166ZM13.6667 23.9166H27.3333V27.3333H13.6667V23.9166ZM13.6667 18.7916H17.0833V22.2083H13.6667V18.7916ZM13.6667 13.6666H17.0833V17.0833H13.6667V13.6666ZM18.7917 18.7916H22.2083V22.2083H18.7917V18.7916ZM18.7917 13.6666H22.2083V17.0833H18.7917V13.6666ZM29.0417 23.9166H32.4583V27.3333H29.0417V23.9166ZM23.9167 18.7916H27.3333V22.2083H23.9167V18.7916ZM23.9167 13.6666H27.3333V17.0833H23.9167V13.6666ZM29.0417 13.6666H32.4583V22.2083H29.0417V13.6666Z" fill="#00329B"/>
</svg>
