<svg width="33" height="33" viewBox="0 0 33 33" fill="none" xmlns="http://www.w3.org/2000/svg">
<path d="M6.875 6.875H26.125C27.219 6.875 28.2682 7.3096 29.0418 8.08318C29.8154 8.85677 30.25 9.90598 30.25 11V22C30.25 23.094 29.8154 24.1432 29.0418 24.9168C28.2682 25.6904 27.219 26.125 26.125 26.125H6.875C5.78098 26.125 4.73177 25.6904 3.95818 24.9168C3.1846 24.1432 2.75 23.094 2.75 22V11C2.75 9.90598 3.1846 8.85677 3.95818 8.08318C4.73177 7.3096 5.78098 6.875 6.875 6.875V6.875ZM6.875 9.625C6.51033 9.625 6.16059 9.76987 5.90273 10.0277C5.64487 10.2856 5.5 10.6353 5.5 11V22C5.5 22.3647 5.64487 22.7144 5.90273 22.9723C6.16059 23.2301 6.51033 23.375 6.875 23.375H26.125C26.4897 23.375 26.8394 23.2301 27.0973 22.9723C27.3551 22.7144 27.5 22.3647 27.5 22V11C27.5 10.6353 27.3551 10.2856 27.0973 10.0277C26.8394 9.76987 26.4897 9.625 26.125 9.625H6.875ZM6.875 15.125H9.625V17.875H6.875V15.125ZM6.875 11H9.625V13.75H6.875V11ZM6.875 19.25H9.625V22H6.875V19.25ZM11 19.25H22V22H11V19.25ZM11 15.125H13.75V17.875H11V15.125ZM11 11H13.75V13.75H11V11ZM15.125 15.125H17.875V17.875H15.125V15.125ZM15.125 11H17.875V13.75H15.125V11ZM23.375 19.25H26.125V22H23.375V19.25ZM19.25 15.125H22V17.875H19.25V15.125ZM19.25 11H22V13.75H19.25V11ZM23.375 11H26.125V17.875H23.375V11Z" fill="#00329B"/>
</svg>
