<svg width="33" height="33" viewBox="0 0 33 33" fill="none" xmlns="http://www.w3.org/2000/svg">
<path d="M3.09375 2.57812H4.125V3.60938H3.09375V2.57812Z" fill="#4628A4"/>
<path d="M5.15625 2.57812H6.1875V3.60938H5.15625V2.57812Z" fill="#4628A4"/>
<path d="M7.21875 2.57812H8.25V3.60938H7.21875V2.57812Z" fill="#4628A4"/>
<path d="M3.60938 15.4688H14.9531C15.0899 15.4688 15.221 15.4144 15.3177 15.3177C15.4144 15.221 15.4688 15.0899 15.4688 14.9531V6.70312C15.4688 6.56637 15.4144 6.43522 15.3177 6.33852C15.221 6.24182 15.0899 6.1875 14.9531 6.1875H3.60938C3.47262 6.1875 3.34147 6.24182 3.24477 6.33852C3.14807 6.43522 3.09375 6.56637 3.09375 6.70312V14.9531C3.09375 15.0899 3.14807 15.221 3.24477 15.3177C3.34147 15.4144 3.47262 15.4688 3.60938 15.4688ZM4.125 7.21875H14.4375V14.4375H4.125V7.21875Z" fill="#4628A4"/>
<path d="M3.60938 25.2656H14.9531C15.0899 25.2656 15.221 25.2113 15.3177 25.1146C15.4144 25.0179 15.4688 24.8868 15.4688 24.75V17.0156C15.4688 16.8789 15.4144 16.7477 15.3177 16.651C15.221 16.5543 15.0899 16.5 14.9531 16.5H3.60938C3.47262 16.5 3.34147 16.5543 3.24477 16.651C3.14807 16.7477 3.09375 16.8789 3.09375 17.0156V24.75C3.09375 24.8868 3.14807 25.0179 3.24477 25.1146C3.34147 25.2113 3.47262 25.2656 3.60938 25.2656ZM4.125 17.5312H14.4375V24.2344H4.125V17.5312Z" fill="#4628A4"/>
<path d="M24.2344 25.2656H25.2656V26.2969H24.2344V25.2656Z" fill="#4628A4"/>
<path d="M28.3594 25.2656H29.3906V26.2969H28.3594V25.2656Z" fill="#4628A4"/>
<path d="M26.8125 28.875C26.539 28.875 26.2767 28.7664 26.0833 28.573C25.8899 28.3796 25.7812 28.1173 25.7812 27.8438H24.75C24.75 28.3908 24.9673 28.9154 25.3541 29.3022C25.7409 29.689 26.2655 29.9062 26.8125 29.9062C27.3595 29.9062 27.8841 29.689 28.2709 29.3022C28.6577 28.9154 28.875 28.3908 28.875 27.8438H27.8438C27.8438 28.1173 27.7351 28.3796 27.5417 28.573C27.3483 28.7664 27.086 28.875 26.8125 28.875Z" fill="#4628A4"/>
<path d="M11.6016 10.3806L7.99219 8.3181C7.91373 8.27281 7.82472 8.24898 7.73412 8.24902C7.64352 8.24907 7.55454 8.27298 7.47612 8.31836C7.39771 8.36373 7.33263 8.42897 7.28745 8.5075C7.24227 8.58602 7.21857 8.67507 7.21875 8.76567V12.8907C7.21857 12.9813 7.24227 13.0703 7.28745 13.1488C7.33263 13.2274 7.39771 13.2926 7.47612 13.338C7.55454 13.3833 7.64352 13.4073 7.73412 13.4073C7.82472 13.4074 7.91373 13.3835 7.99219 13.3382L11.6016 11.2757C11.6804 11.2306 11.746 11.1655 11.7916 11.0869C11.8371 11.0083 11.8611 10.919 11.8611 10.8282C11.8611 10.7373 11.8371 10.6481 11.7916 10.5695C11.746 10.4909 11.6804 10.4257 11.6016 10.3806V10.3806ZM8.25 12.0017V9.6546L10.3043 10.8282L8.25 12.0017Z" fill="#4628A4"/>
<path d="M27.3281 15.9844C27.4262 15.9844 27.5222 15.9565 27.605 15.9039C27.6878 15.8513 27.7538 15.7762 27.7954 15.6873C27.8369 15.5985 27.8523 15.4997 27.8397 15.4024C27.8271 15.3052 27.787 15.2135 27.7241 15.1383L25.146 12.0445C25.1001 11.9894 25.0433 11.9445 24.9791 11.9127C24.9149 11.8808 24.8448 11.8627 24.7732 11.8594C24.7015 11.855 24.6298 11.8662 24.5628 11.8922C24.4959 11.9182 24.4354 11.9584 24.3855 12.01L23.629 12.7669L22.5632 11.5242C22.5134 11.4701 22.4529 11.4268 22.3856 11.3973C22.3182 11.3677 22.2454 11.3524 22.1719 11.3524C22.0983 11.3524 22.0255 11.3677 21.9582 11.3973C21.8908 11.4268 21.8303 11.4701 21.7805 11.5242L18.6868 15.1336C18.6227 15.2085 18.5815 15.3001 18.5679 15.3977C18.5543 15.4953 18.569 15.5947 18.6102 15.6843C18.6513 15.7738 18.7173 15.8496 18.8002 15.9028C18.8832 15.956 18.9796 15.9843 19.0781 15.9844H27.3281ZM20.1991 14.9531L22.1719 12.6514L24.1447 14.9531H20.1991ZM24.7155 13.1387L26.2273 14.9531H25.5028L24.3019 13.5522L24.7155 13.1387Z" fill="#4628A4"/>
<path d="M31.4531 1.03125H1.54688C1.41012 1.03125 1.27897 1.08557 1.18227 1.18227C1.08557 1.27897 1.03125 1.41012 1.03125 1.54688V26.8125C1.03125 26.9493 1.08557 27.0804 1.18227 27.1771C1.27897 27.2738 1.41012 27.3281 1.54688 27.3281H21.6825C21.8159 28.6434 22.4494 29.8573 23.4521 30.7189C24.4549 31.5805 25.7502 32.024 27.0706 31.9578C28.3911 31.8916 29.6356 31.3208 30.5471 30.3632C31.4587 29.4057 31.9676 28.1346 31.9688 26.8125V1.54688C31.9688 1.41012 31.9144 1.27897 31.8177 1.18227C31.721 1.08557 31.5899 1.03125 31.4531 1.03125V1.03125ZM26.8125 30.9375C25.9967 30.9375 25.1991 30.6956 24.5208 30.2423C23.8424 29.7891 23.3137 29.1448 23.0015 28.3911C22.6893 27.6373 22.6076 26.8079 22.7668 26.0078C22.9259 25.2076 23.3188 24.4726 23.8957 23.8957C24.4726 23.3188 25.2076 22.9259 26.0078 22.7668C26.8079 22.6076 27.6373 22.6893 28.3911 23.0015C29.1448 23.3137 29.7891 23.8424 30.2423 24.5208C30.6956 25.1991 30.9375 25.9967 30.9375 26.8125C30.9363 27.9061 30.5013 28.9546 29.728 29.728C28.9546 30.5013 27.9061 30.9363 26.8125 30.9375ZM22.3539 24.2344H17.5312V7.21875H28.875V22.0899C27.7149 21.5804 26.4074 21.5175 25.2038 21.9134C24.0001 22.3092 22.9852 23.1358 22.3539 24.2344V24.2344ZM30.9375 23.7322C30.6441 23.3404 30.297 22.992 29.9062 22.6973V6.70312C29.9062 6.56637 29.8519 6.43522 29.7552 6.33852C29.6585 6.24182 29.5274 6.1875 29.3906 6.1875H17.0156C16.8789 6.1875 16.7477 6.24182 16.651 6.33852C16.5543 6.43522 16.5 6.56637 16.5 6.70312V24.75C16.5 24.8868 16.5543 25.0179 16.651 25.1146C16.7477 25.2113 16.8789 25.2656 17.0156 25.2656H21.894C21.7881 25.6012 21.7172 25.9468 21.6825 26.2969H2.0625V5.15625H30.9375V23.7322ZM30.9375 4.125H2.0625V2.0625H30.9375V4.125Z" fill="#4628A4"/>
<path d="M5.15625 18.5625H13.4062V19.5938H5.15625V18.5625Z" fill="#4628A4"/>
<path d="M5.15625 20.625H13.4062V21.6562H5.15625V20.625Z" fill="#4628A4"/>
</svg>
