<svg width="185" height="185" viewBox="0 0 185 185" fill="none" xmlns="http://www.w3.org/2000/svg">
<g opacity="0.85" clip-path="url(#clip0_170_2)">
<path d="M0 0H185V185H0V0Z" fill="#F0DB4F"/>
<path d="M169.859 140.878C168.505 132.437 163 125.35 146.699 118.738C141.036 116.135 134.723 114.271 132.841 109.98C132.173 107.483 132.085 106.076 132.507 104.564C133.721 99.6574 139.576 98.1274 144.219 99.5343C147.209 100.537 150.04 102.841 151.746 106.516C159.73 101.346 159.712 101.381 165.287 97.8287C163.247 94.6633 162.156 93.2035 160.82 91.8496C156.019 86.486 149.477 83.725 139.014 83.9361C137.202 84.1647 135.374 84.4107 133.562 84.6395C128.339 85.9584 123.363 88.7017 120.443 92.3771C111.686 102.313 114.183 119.705 124.84 126.862C135.338 134.741 150.761 136.534 152.73 143.903C154.647 152.924 146.101 155.843 137.607 154.806C131.346 153.505 127.865 150.322 124.101 144.536C117.173 148.545 117.173 148.545 110.051 152.643C111.739 156.336 113.515 158.006 116.346 161.207C129.746 174.801 163.282 174.132 169.296 153.557C169.542 152.854 171.16 148.141 169.859 140.878V140.878ZM100.572 85.0262H83.2676C83.2676 99.9739 83.1974 114.816 83.1974 129.764C83.1974 139.278 83.6898 148 82.1423 150.673C79.6099 155.931 73.0505 155.28 70.061 154.26C67.0187 152.766 65.4712 150.638 63.6774 147.631C63.185 146.769 62.8157 146.101 62.6925 146.048C57.9973 148.914 53.3194 151.798 48.624 154.665C50.9631 159.466 54.4097 163.634 58.8236 166.342C65.4182 170.298 74.2813 171.512 83.5491 169.384C89.5809 167.625 94.7861 163.985 97.5119 158.446C101.451 151.183 100.607 142.39 100.572 132.665C100.66 116.803 100.572 100.941 100.572 85.0262Z" fill="#323330"/>
</g>
<defs>
<clipPath id="clip0_170_2">
<rect width="185" height="185" fill="white"/>
</clipPath>
</defs>
</svg>
