<svg width="176" height="51" viewBox="0 0 176 51" fill="none" xmlns="http://www.w3.org/2000/svg">
<g clip-path="url(#clip0_171_37)">
<path fill-rule="evenodd" clip-rule="evenodd" d="M67.057 11.723V34.67H75.419V38.628H62.605V11.723H67.057ZM91.135 23.138V20.718H95.354V38.628H91.134V36.206C90.567 37.103 89.76 37.808 88.714 38.32C87.67 38.832 86.618 39.088 85.56 39.088C84.192 39.088 82.94 38.838 81.805 38.339C80.7 37.8613 79.7051 37.1615 78.882 36.283C78.0683 35.4109 77.4252 34.394 76.986 33.285C76.5297 32.1355 76.2995 30.9088 76.308 29.672C76.308 28.417 76.534 27.219 76.986 26.078C77.4223 24.9622 78.0656 23.9389 78.882 23.062C79.7052 22.1834 80.7001 21.4833 81.805 21.005C82.94 20.505 84.192 20.255 85.56 20.255C86.618 20.255 87.67 20.512 88.715 21.025C89.76 21.537 90.567 22.242 91.135 23.138V23.138ZM90.747 31.863C91.0067 31.1622 91.1382 30.4204 91.135 29.673C91.135 28.903 91.005 28.173 90.747 27.481C90.5046 26.8154 90.137 26.2024 89.664 25.675C89.1907 25.1564 88.618 24.7382 87.98 24.445C87.321 24.138 86.592 23.984 85.792 23.984C84.992 23.984 84.269 24.138 83.624 24.445C82.979 24.753 82.424 25.163 81.96 25.675C81.4881 26.1998 81.1263 26.8139 80.896 27.481C80.6483 28.1848 80.5238 28.926 80.528 29.672C80.528 30.441 80.65 31.172 80.896 31.862C81.126 32.5295 81.4879 33.144 81.96 33.669C82.4283 34.1846 82.9938 34.6026 83.624 34.899C84.269 35.207 84.992 35.36 85.792 35.36C86.592 35.36 87.322 35.207 87.98 34.9C88.6182 34.6071 89.1909 34.1888 89.664 33.67C90.1372 33.1425 90.5048 32.5291 90.747 31.863V31.863ZM98.683 38.627V20.717H110.142V24.839H102.902V38.627H98.683V38.627ZM125.433 23.138V20.718H129.652V38.628H125.432V36.206C124.864 37.103 124.058 37.808 123.012 38.32C121.968 38.832 120.916 39.088 119.858 39.088C118.489 39.088 117.238 38.838 116.103 38.339C114.998 37.8613 114.003 37.1615 113.18 36.283C112.366 35.4109 111.723 34.394 111.284 33.285C110.828 32.1355 110.597 30.9088 110.606 29.672C110.606 28.417 110.831 27.219 111.284 26.078C111.72 24.9622 112.364 23.9389 113.18 23.062C114.003 22.1834 114.998 21.4833 116.103 21.005C117.238 20.505 118.489 20.255 119.858 20.255C120.916 20.255 121.968 20.512 123.013 21.025C124.058 21.537 124.864 22.242 125.433 23.138V23.138ZM125.045 31.863C125.304 31.1622 125.435 30.4203 125.432 29.673C125.432 28.903 125.302 28.173 125.045 27.481C124.802 26.8153 124.434 26.2023 123.961 25.675C123.488 25.1564 122.915 24.7382 122.277 24.445C121.619 24.138 120.89 23.984 120.09 23.984C119.29 23.984 118.567 24.138 117.922 24.445C117.277 24.753 116.722 25.163 116.258 25.675C115.786 26.1997 115.424 26.8138 115.193 27.481C114.945 28.1848 114.821 28.926 114.825 29.672C114.825 30.441 114.947 31.172 115.193 31.862C115.423 32.5296 115.786 33.1441 116.258 33.669C116.726 34.1846 117.292 34.6026 117.922 34.899C118.567 35.207 119.29 35.36 120.09 35.36C120.89 35.36 121.62 35.207 122.277 34.9C122.915 34.6071 123.488 34.1888 123.961 33.67C124.435 33.1425 124.803 32.5291 125.045 31.863V31.863ZM146.568 20.717H150.842L143.916 38.627H138.614L131.688 20.717H135.962L141.265 34.432L146.568 20.717V20.717ZM160.044 20.257C165.79 20.257 169.708 25.312 168.972 31.229H154.974C154.974 32.774 156.545 35.761 160.276 35.761C163.486 35.761 165.636 32.958 165.638 32.956L168.488 35.146C165.94 37.848 163.853 39.089 160.585 39.089C154.745 39.089 150.788 35.421 150.788 29.673C150.788 24.473 154.878 20.257 160.044 20.257V20.257ZM154.985 28.116H165.097C165.066 27.771 164.518 23.584 160.011 23.584C155.504 23.584 155.018 27.771 154.985 28.116V28.116ZM171.72 38.627V11.723H175.94V38.627H171.72V38.627ZM49.764 11.513C49.7824 11.5808 49.7918 11.6508 49.792 11.721V22.645C49.7918 22.7855 49.7544 22.9235 49.6836 23.0448C49.6128 23.1662 49.5112 23.2667 49.389 23.336L40.155 28.615V39.078C40.1546 39.2183 40.1171 39.3561 40.0464 39.4773C39.9756 39.5984 39.874 39.6987 39.752 39.768L20.478 50.787C20.434 50.813 20.385 50.828 20.338 50.845C20.319 50.851 20.302 50.862 20.284 50.867C20.149 50.9024 20.007 50.9024 19.872 50.867C19.85 50.861 19.83 50.849 19.809 50.841C19.764 50.826 19.719 50.811 19.677 50.787L0.402 39.77C0.279859 39.7004 0.178321 39.5998 0.107712 39.4782C0.0371018 39.3567 -6.16877e-05 39.2186 7.68626e-08 39.078V6.30602C0.000158818 6.23576 0.00957315 6.16583 0.0280001 6.09802C0.0340001 6.07402 0.0480001 6.05302 0.0560001 6.03102C0.0720001 5.98902 0.0860001 5.94602 0.108 5.90702C0.123 5.88102 0.145 5.86002 0.162 5.83702C0.186 5.80502 0.206 5.77102 0.234 5.74302C0.257 5.72002 0.287 5.70302 0.313 5.68302C0.342 5.66102 0.368 5.63502 0.401 5.61602L0.402 5.61502L10.04 0.106023C10.1619 0.0367725 10.2998 0.000366211 10.44 0.000366211C10.5802 0.000366211 10.7181 0.0367725 10.84 0.106023L20.478 5.61502H20.48C20.512 5.63502 20.538 5.66102 20.568 5.68302C20.594 5.70302 20.623 5.72002 20.646 5.74302C20.674 5.77102 20.694 5.80502 20.718 5.83602C20.736 5.86002 20.758 5.88102 20.773 5.90702C20.795 5.94602 20.809 5.98902 20.825 6.03102C20.833 6.05302 20.846 6.07402 20.853 6.09802C20.8711 6.16587 20.8802 6.2358 20.88 6.30602V26.775L28.912 22.184V11.721C28.9118 11.6508 28.9209 11.5809 28.939 11.513C28.946 11.489 28.959 11.469 28.968 11.446C28.983 11.404 28.997 11.361 29.019 11.322C29.034 11.296 29.056 11.275 29.074 11.252C29.098 11.22 29.118 11.186 29.146 11.159C29.169 11.136 29.198 11.119 29.224 11.099C29.254 11.076 29.28 11.049 29.313 11.031V11.03L38.951 5.52102C39.073 5.4514 39.211 5.41478 39.3515 5.41478C39.492 5.41478 39.63 5.4514 39.752 5.52102L49.389 11.03H49.39C49.424 11.05 49.45 11.076 49.48 11.098C49.505 11.118 49.535 11.136 49.558 11.158C49.586 11.186 49.606 11.22 49.629 11.251C49.647 11.275 49.669 11.296 49.684 11.322C49.707 11.361 49.72 11.404 49.736 11.446C49.745 11.469 49.758 11.489 49.764 11.513V11.513ZM48.186 22.184V13.1L44.813 15.028L40.155 17.691V26.775L48.185 22.184H48.186ZM38.549 38.617V29.527L33.965 32.125L20.88 39.54V48.715L38.549 38.615V38.617ZM1.606 7.68502V38.617L19.274 48.717V39.543L10.044 34.357L10.042 34.354L10.038 34.353C10.006 34.335 9.981 34.309 9.952 34.287C9.926 34.267 9.898 34.251 9.875 34.229L9.873 34.226C9.847 34.201 9.829 34.17 9.807 34.142C9.787 34.116 9.763 34.093 9.747 34.065L9.746 34.062C9.728 34.032 9.717 33.996 9.704 33.962C9.691 33.933 9.674 33.905 9.666 33.873V33.872C9.655 33.834 9.654 33.794 9.649 33.755C9.646 33.725 9.637 33.696 9.637 33.665V12.275L4.98 9.61302L1.606 7.68502ZM10.44 1.71702L2.413 6.30702L10.44 10.895L18.468 6.30602L10.44 1.71702V1.71702ZM14.616 30.355L19.274 27.693V7.68502L15.902 9.61302L11.243 12.276V32.283L14.616 30.355V30.355ZM39.352 7.13302L31.324 11.721L39.352 16.31L47.379 11.721L39.352 7.13302V7.13302ZM38.549 17.691L33.89 15.028L30.518 13.1V22.184L35.176 24.847L38.549 26.775V17.69V17.691ZM20.076 38.161L31.851 31.487L37.737 28.151L29.715 23.565L20.478 28.845L12.06 33.657L20.076 38.161Z" fill="#FF2D20"/>
</g>
<defs>
<clipPath id="clip0_171_37">
<rect width="176" height="51" fill="white"/>
</clipPath>
</defs>
</svg>
