<svg width="129" height="68" viewBox="0 0 129 68" fill="none" xmlns="http://www.w3.org/2000/svg">
<path d="M0 33.9893C0 52.7609 28.7688 67.9786 64.2555 67.9786C99.7422 67.9786 128.511 52.7609 128.511 33.9893C128.511 15.218 99.7422 5.47368e-05 64.2555 5.47368e-05C28.7688 5.47368e-05 0 15.218 0 33.9893Z" fill="url(#paint0_radial_171_6)"/>
<path d="M64.2555 65.4551C98.3562 65.4551 126.001 51.3673 126.001 33.9893C126.001 16.6115 98.3562 2.5235 64.2555 2.5235C30.1549 2.5235 2.51001 16.6115 2.51001 33.9893C2.51001 51.3673 30.1549 65.4551 64.2555 65.4551Z" fill="#777BB3"/>
<path d="M34.9106 37.8906C37.7146 37.8906 39.8078 37.3706 41.1323 36.3456C42.4426 35.3311 43.3476 33.5734 43.822 31.1217C44.2642 28.83 44.0957 27.2299 43.3214 26.3663C42.5295 25.4843 40.8176 25.037 38.2333 25.037H33.7523L31.2681 37.8906H34.9106ZM20.2544 53.7239C20.0464 53.7239 19.8489 53.6304 19.7166 53.4687C19.5841 53.3072 19.5305 53.0945 19.5702 52.8891L26.1538 18.8269C26.2175 18.4976 26.5045 18.2597 26.8382 18.2597H41.0275C45.4869 18.2597 48.8061 19.4773 50.8924 21.879C52.9899 24.2934 53.6376 27.6683 52.8174 31.9097C52.4837 33.6377 51.9097 35.2425 51.1114 36.6793C50.3121 38.1178 49.2558 39.4487 47.9713 40.6359C46.4337 42.083 44.6935 43.1323 42.8036 43.7497C40.9436 44.359 38.5549 44.6679 35.704 44.6679H29.9585L28.3177 53.1564C28.254 53.486 27.9672 53.7239 27.6335 53.7239H20.2544Z" fill="black"/>
<path d="M34.327 25.738H38.2333C41.3524 25.738 42.4359 26.4262 42.804 26.8364C43.4148 27.5174 43.53 28.9532 43.1375 30.9885C42.6964 33.2671 41.8788 34.8827 40.707 35.7899C39.5073 36.7187 37.557 37.1893 34.9106 37.1893H32.1138L34.327 25.738ZM41.0275 17.5584H26.838C26.1705 17.5584 25.5967 18.0342 25.4693 18.693L18.8858 52.7552C18.8063 53.1663 18.9136 53.5914 19.1784 53.9146C19.4433 54.2378 19.8379 54.4248 20.2544 54.4248H27.6333C28.301 54.4248 28.8748 53.949 29.0021 53.2902L30.5332 45.3689H35.704C38.6281 45.3689 41.0898 45.0482 43.0199 44.4161C45.0049 43.7676 46.8311 42.668 48.4475 41.148C49.7843 39.9112 50.8855 38.5231 51.7198 37.0215C52.5544 35.5195 53.154 33.8446 53.5019 32.0432C54.3653 27.5786 53.6639 24.0034 51.4174 21.4178C49.1928 18.8569 45.697 17.5584 41.0275 17.5584ZM30.4221 38.5915H34.9106C37.8856 38.5915 40.1016 38.0281 41.5576 36.9009C43.0139 35.7736 43.996 33.892 44.5064 31.2554C44.9947 28.724 44.7723 26.9375 43.8391 25.8969C42.9049 24.8562 41.0366 24.3358 38.2333 24.3358H33.1775L30.4221 38.5915M41.0275 18.9606C45.2961 18.9606 48.4101 20.0871 50.3674 22.3402C52.3245 24.5933 52.9139 27.7382 52.133 31.7759C51.8116 33.4391 51.268 34.9598 50.5027 36.3375C49.7364 37.7161 48.7359 38.9767 47.4995 40.1197C46.0261 41.5063 44.3893 42.4943 42.5881 43.0828C40.787 43.6729 38.4929 43.9667 35.704 43.9667H29.3835L27.6333 53.0226H20.2544L26.838 18.9606H41.0275" fill="white"/>
<path d="M69.7363 44.668C69.528 44.668 69.3307 44.5745 69.1985 44.4128C69.0658 44.2513 69.0121 44.0388 69.0518 43.8332L71.9641 28.762C72.2411 27.3287 72.1728 26.3 71.7719 25.8653C71.5265 25.5996 70.7893 25.1539 68.6096 25.1539H63.3335L59.672 44.1005C59.6083 44.4301 59.3213 44.668 58.9875 44.668H51.6667C51.4585 44.668 51.2612 44.5745 51.1287 44.4128C50.9962 44.2513 50.9426 44.0386 50.9823 43.8332L57.5659 9.77098C57.6296 9.44169 57.9166 9.20378 58.2503 9.20378H65.5711C65.7793 9.20378 65.9767 9.29727 66.1091 9.45875C66.2416 9.62047 66.2953 9.83291 66.2555 10.0386L64.6668 18.2597H70.3426C74.6665 18.2597 77.5986 19.0263 79.3063 20.6033C81.047 22.2121 81.5901 24.7844 80.9208 28.2497L77.8577 44.1005C77.794 44.4301 77.5072 44.668 77.1733 44.668H69.7363Z" fill="black"/>
<path d="M65.5711 8.5025H58.2503C57.5826 8.5025 57.0088 8.97832 56.8814 9.63712L50.2979 43.6993C50.2184 44.1104 50.3258 44.5355 50.5907 44.8587C50.8556 45.1819 51.2503 45.3689 51.6667 45.3689H58.9875C59.655 45.3689 60.229 44.8931 60.3564 44.2343L63.9082 25.8548H68.6096C70.7856 25.8548 71.2423 26.3222 71.2606 26.3423C71.3926 26.4851 71.5662 27.1465 71.2797 28.6282L68.3674 43.6993C68.2879 44.1104 68.3953 44.5355 68.6602 44.8587C68.9252 45.1819 69.3198 45.3689 69.7363 45.3689H77.1732C77.8407 45.3689 78.4148 44.8931 78.5421 44.2343L81.605 28.3835C82.3238 24.6627 81.7089 21.8716 79.778 20.0871C77.9355 18.3855 74.8492 17.5584 70.3426 17.5584H65.5123L66.94 10.1723C67.0192 9.76122 66.9121 9.33588 66.6471 9.01291C66.3822 8.6897 65.9876 8.5025 65.5711 8.5025ZM65.5711 9.90471L63.8208 18.9606H70.3426C74.4462 18.9606 77.2767 19.6809 78.8345 21.1196C80.3923 22.5592 80.859 24.8917 80.2364 28.1161L77.1732 43.9667H69.7363L72.6485 28.8958C72.98 27.1813 72.8582 26.0119 72.2827 25.3884C71.7071 24.7648 70.4825 24.4526 68.6096 24.4526H62.7585L58.9875 43.9667H51.6667L58.2503 9.90471H65.5711Z" fill="white"/>
<path d="M92.5043 37.8906C95.3083 37.8906 97.4016 37.3706 98.726 36.3456C100.036 35.3313 100.941 33.5737 101.416 31.1217C101.858 28.83 101.69 27.2299 100.915 26.3663C100.123 25.4843 98.4114 25.037 95.827 25.037H91.346L88.8618 37.8906H92.5043ZM77.8484 53.7239C77.6404 53.7239 77.4428 53.6304 77.3106 53.4687C77.1781 53.3072 77.1242 53.0945 77.1639 52.8891L83.7475 18.8269C83.8114 18.4976 84.0982 18.2597 84.4322 18.2597H98.6212C103.081 18.2597 106.4 19.4773 108.486 21.879C110.584 24.2932 111.231 27.668 110.411 31.9097C110.077 33.6377 109.503 35.2425 108.705 36.6793C107.906 38.1178 106.85 39.4487 105.565 40.6359C104.027 42.083 102.287 43.1323 100.397 43.7497C98.5373 44.359 96.1487 44.6679 93.2977 44.6679H87.552L85.9119 53.1564C85.848 53.486 85.5612 53.7239 85.2272 53.7239H77.8484Z" fill="black"/>
<path d="M91.9208 25.738H95.8271C98.9462 25.738 100.03 26.4262 100.398 26.8364C101.009 27.5174 101.124 28.9532 100.731 30.9883C100.29 33.2671 99.4723 34.8827 98.3008 35.7899C97.1011 36.7187 95.1508 37.1893 92.5043 37.1893H89.7078L91.9208 25.738ZM98.6213 17.5584H84.432C83.7645 17.5584 83.1907 18.0342 83.0633 18.693L76.4798 52.7552C76.4003 53.1663 76.5076 53.5914 76.7723 53.9146C77.0373 54.2378 77.4319 54.4248 77.8484 54.4248H85.2273C85.8947 54.4248 86.4688 53.949 86.5961 53.2902L88.127 45.3689H93.2978C96.2219 45.3689 98.6835 45.0482 100.614 44.4161C102.599 43.7676 104.425 42.6678 106.042 41.1475C107.379 39.911 108.479 38.5231 109.314 37.0215C110.148 35.5195 110.748 33.8446 111.096 32.0432C111.959 27.5784 111.258 24.0032 109.011 21.4175C106.787 18.8569 103.291 17.5584 98.6213 17.5584ZM88.0161 38.5915H92.5043C95.4794 38.5915 97.6954 38.0281 99.1514 36.9009C100.608 35.7736 101.59 33.892 102.1 31.2554C102.589 28.724 102.366 26.9375 101.433 25.8969C100.499 24.8562 98.6303 24.3358 95.8271 24.3358H90.7713L88.0161 38.5915ZM98.6213 18.9606C102.89 18.9606 106.004 20.0871 107.961 22.3402C109.918 24.5933 110.508 27.7382 109.727 31.7759C109.405 33.4391 108.862 34.9598 108.096 36.3375C107.33 37.7161 106.33 38.9767 105.093 40.1197C103.62 41.5063 101.983 42.4943 100.182 43.0828C98.3807 43.6729 96.0866 43.9667 93.2978 43.9667H86.9773L85.2273 53.0226H77.8484L84.432 18.9606H98.6213" fill="white"/>
<defs>
<radialGradient id="paint0_radial_171_6" cx="0" cy="0" r="1" gradientUnits="userSpaceOnUse" gradientTransform="translate(38.5793 11.9496) scale(84.3767 84.8471)">
<stop stop-color="#AEB2D5"/>
<stop offset="0.3" stop-color="#AEB2D5"/>
<stop offset="0.75" stop-color="#484C89"/>
<stop offset="1" stop-color="#484C89"/>
</radialGradient>
</defs>
</svg>
