<svg width="145" height="49" viewBox="0 0 145 49" fill="none" xmlns="http://www.w3.org/2000/svg">
<path d="M27.2706 29.0964C29.9773 29.0964 32.1716 26.9021 32.1716 24.1954C32.1716 21.4887 29.9773 19.2944 27.2706 19.2944C24.5639 19.2944 22.3696 21.4887 22.3696 24.1954C22.3696 26.9021 24.5639 29.0964 27.2706 29.0964Z" fill="#00D8FF"/>
<path fill-rule="evenodd" clip-rule="evenodd" d="M81.7114 36.5923L75.7143 27.3848C78.7452 27.113 81.4763 24.8813 81.4763 20.804C81.4763 16.6552 78.5791 14 74.5149 14H65.5896V36.5751H68.3545V27.6052H72.7847L78.4468 36.5751L81.7114 36.5923ZM74.1841 25.1516H68.3559V16.5207H74.1841C76.8166 16.5207 78.6143 18.2804 78.6143 20.8197C78.6143 23.3591 76.8152 25.1545 74.1841 25.1545V25.1516ZM92.0036 36.9971C94.6362 36.9971 96.7999 36.1173 98.3992 34.4936L97.1997 32.8341C95.9327 34.1545 94.0688 34.8984 92.2373 34.8984C88.7742 34.8984 86.6414 32.3262 86.4415 29.2475H99.4634V28.6037C99.4634 23.6967 96.5986 19.8369 91.7348 19.8369C87.1384 19.8369 83.809 23.6624 83.809 28.4006C83.809 33.5122 87.2397 36.9843 92.0022 36.9843L92.0036 36.9971ZM97.0012 27.3834H86.4429C86.5767 24.8798 88.273 21.9328 91.7052 21.9328C95.3696 21.9328 96.9675 24.9456 97.0012 27.3834ZM116.054 36.5908V25.3534C116.054 21.3934 113.224 19.8355 109.826 19.8355C107.194 19.8355 105.13 20.7153 103.398 22.5436L104.564 24.3033C105.995 22.7468 107.562 22.0358 109.494 22.0358C111.825 22.0358 113.558 23.2876 113.558 25.4878V28.432C112.259 26.9084 110.427 26.1974 108.228 26.1974C105.497 26.1974 102.597 27.9242 102.597 31.5794C102.597 35.1331 105.494 36.9957 108.228 36.9957C110.393 36.9957 112.226 36.2175 113.558 34.7282V36.588L116.054 36.5908ZM109.128 35.1688C106.797 35.1688 105.164 33.681 105.164 31.6152C105.164 29.5165 106.797 28.0272 109.128 28.0272C110.893 28.0272 112.591 28.7039 113.558 30.0587V33.1388C112.592 34.4921 110.893 35.1702 109.128 35.1702V35.1688ZM128.133 36.9971C131.064 36.9971 132.795 35.7783 134.028 34.1545L132.363 32.598C131.297 34.0529 129.932 34.7296 128.281 34.7296C124.85 34.7296 122.72 32.0215 122.72 28.4006C122.72 24.7797 124.851 22.1059 128.281 22.1059C129.946 22.1059 131.311 22.7496 132.363 24.2375L134.028 22.681C132.797 21.0558 131.064 19.8383 128.133 19.8383C123.336 19.8383 120.106 23.5622 120.106 28.402C120.106 33.2761 123.336 36.9857 128.133 36.9857V36.9971ZM141.591 36.9971C143.055 36.9971 143.956 36.5565 144.59 35.9485L143.858 34.0529C143.524 34.4249 142.872 34.7296 142.158 34.7296C141.06 34.7296 140.525 33.8498 140.525 32.6309V22.4764H143.791V20.2432H140.525V15.7754H138.027V20.2432H135.362V22.4778H138.027V33.1745C138.027 35.6123 139.226 37 141.591 37V36.9971Z" fill="#00D8FF"/>
<path fill-rule="evenodd" clip-rule="evenodd" d="M27.2707 14.2306C33.8509 14.2306 39.9637 15.1748 44.5728 16.7615C50.1261 18.6734 53.5404 21.5713 53.5404 24.1953C53.5404 26.9297 49.9219 30.0083 43.9584 31.9842C39.4499 33.4779 33.517 34.2577 27.2707 34.2577C20.8665 34.2577 14.8021 33.5258 10.2427 31.9678C4.47436 29.9961 1 26.8776 1 24.1953C1 21.5925 4.26002 18.717 9.73523 16.8081C14.3615 15.1952 20.6253 14.2306 27.2698 14.2306H27.2707Z" stroke="#00D8FF" stroke-width="1.66272"/>
<path fill-rule="evenodd" clip-rule="evenodd" d="M18.5962 19.2416C21.8836 13.5414 25.7552 8.71775 29.4324 5.51771C33.8627 1.66216 38.0789 0.152211 40.3519 1.46296C42.7208 2.829 43.5799 7.50176 42.3123 13.6547C41.3549 18.3066 39.0656 23.8355 35.9451 29.2465C32.7456 34.7943 29.0821 39.6821 25.4551 42.8524C20.8655 46.8645 16.4282 48.3164 14.1046 46.9763C11.8499 45.677 10.9876 41.4156 12.0693 35.7189C12.9832 30.9055 15.2767 24.9975 18.5952 19.2415L18.5962 19.2416Z" stroke="#00D8FF" stroke-width="1.66272"/>
<path fill-rule="evenodd" clip-rule="evenodd" d="M18.6044 29.2611C15.3077 23.5673 13.0632 17.8029 12.1264 13.0191C10.9986 7.25522 11.796 2.84828 14.0669 1.53372C16.4335 0.163672 20.9108 1.75294 25.6084 5.92405C29.1601 9.07758 32.8072 13.8213 35.9368 19.2272C39.1455 24.7696 41.5503 30.3847 42.4858 35.1104C43.6695 41.0904 42.7114 45.6597 40.39 47.0035C38.1375 48.3075 34.0155 46.9269 29.6203 43.1446C25.9067 39.9491 21.9336 35.0114 18.6044 29.261V29.2611Z" stroke="#00D8FF" stroke-width="1.66272"/>
</svg>
